<svg id="SvgjsSvg1375" width="584" height="557" xmlns="http://www.w3.org/2000/svg" version="1.1" xmlns:xlink="http://www.w3.org/1999/xlink" xmlns:svgjs="http://svgjs.com/svgjs"><defs id="SvgjsDefs1376"><marker id="SvgjsMarker1385" markerWidth="16" markerHeight="12" refX="16" refY="6" viewBox="0 0 16 12" orient="auto" markerUnits="userSpaceOnUse"><path id="SvgjsPath1386" d="M0,2 L14,6 L0,11 L0,2" fill="#323232" stroke="#323232" stroke-width="2"></path></marker><marker id="SvgjsMarker1393" markerWidth="16" markerHeight="12" refX="16" refY="6" viewBox="0 0 16 12" orient="auto" markerUnits="userSpaceOnUse"><path id="SvgjsPath1394" d="M0,2 L14,6 L0,11 L0,2" fill="#323232" stroke="#323232" stroke-width="2"></path></marker><marker id="SvgjsMarker1415" markerWidth="16" markerHeight="12" refX="16" refY="6" viewBox="0 0 16 12" orient="auto" markerUnits="userSpaceOnUse"><path id="SvgjsPath1416" d="M0,2 L14,6 L0,11 L0,2" fill="#323232" stroke="#323232" stroke-width="2"></path></marker><marker id="SvgjsMarker1475" markerWidth="16" markerHeight="12" refX="16" refY="6" viewBox="0 0 16 12" orient="auto" markerUnits="userSpaceOnUse"><path id="SvgjsPath1476" d="M0,2 L14,6 L0,11 L0,2" fill="#323232" stroke="#323232" stroke-width="2"></path></marker><marker id="SvgjsMarker1483" markerWidth="16" markerHeight="12" refX="16" refY="6" viewBox="0 0 16 12" orient="auto" markerUnits="userSpaceOnUse"><path id="SvgjsPath1484" d="M0,2 L14,6 L0,11 L0,2" fill="#323232" stroke="#323232" stroke-width="2"></path></marker><marker id="SvgjsMarker1491" markerWidth="16" markerHeight="12" refX="16" refY="6" viewBox="0 0 16 12" orient="auto" markerUnits="userSpaceOnUse"><path id="SvgjsPath1492" d="M0,2 L14,6 L0,11 L0,2" fill="#323232" stroke="#323232" stroke-width="2"></path></marker><marker id="SvgjsMarker1495" markerWidth="16" markerHeight="12" refX="16" refY="6" viewBox="0 0 16 12" orient="auto" markerUnits="userSpaceOnUse"><path id="SvgjsPath1496" d="M0,2 L14,6 L0,11 L0,2" fill="#323232" stroke="#323232" stroke-width="2"></path></marker><marker id="SvgjsMarker1509" markerWidth="16" markerHeight="12" refX="16" refY="6" viewBox="0 0 16 12" orient="auto" markerUnits="userSpaceOnUse"><path id="SvgjsPath1510" d="M0,2 L14,6 L0,11 L0,2" fill="#323232" stroke="#323232" stroke-width="2"></path></marker><marker id="SvgjsMarker1517" markerWidth="16" markerHeight="12" refX="16" refY="6" viewBox="0 0 16 12" orient="auto" markerUnits="userSpaceOnUse"><path id="SvgjsPath1518" d="M0,2 L14,6 L0,11 L0,2" fill="#323232" stroke="#323232" stroke-width="2"></path></marker><marker id="SvgjsMarker1521" markerWidth="16" markerHeight="12" refX="16" refY="6" viewBox="0 0 16 12" orient="auto" markerUnits="userSpaceOnUse"><path id="SvgjsPath1522" d="M0,2 L14,6 L0,11 L0,2" fill="#323232" stroke="#323232" stroke-width="2"></path></marker><marker id="SvgjsMarker1529" markerWidth="16" markerHeight="12" refX="16" refY="6" viewBox="0 0 16 12" orient="auto" markerUnits="userSpaceOnUse"><path id="SvgjsPath1530" d="M0,2 L14,6 L0,11 L0,2" fill="#323232" stroke="#323232" stroke-width="2"></path></marker><marker id="SvgjsMarker1537" markerWidth="16" markerHeight="12" refX="16" refY="6" viewBox="0 0 16 12" orient="auto" markerUnits="userSpaceOnUse"><path id="SvgjsPath1538" d="M0,2 L14,6 L0,11 L0,2" fill="#323232" stroke="#323232" stroke-width="2"></path></marker><marker id="SvgjsMarker1545" markerWidth="16" markerHeight="12" refX="16" refY="6" viewBox="0 0 16 12" orient="auto" markerUnits="userSpaceOnUse"><path id="SvgjsPath1546" d="M0,2 L14,6 L0,11 L0,2" fill="#323232" stroke="#323232" stroke-width="2"></path></marker><marker id="SvgjsMarker1553" markerWidth="16" markerHeight="12" refX="16" refY="6" viewBox="0 0 16 12" orient="auto" markerUnits="userSpaceOnUse"><path id="SvgjsPath1554" d="M0,2 L14,6 L0,11 L0,2" fill="#323232" stroke="#323232" stroke-width="2"></path></marker></defs><g id="SvgjsG1377" transform="translate(25,35)"><path id="SvgjsPath1378" d="M 0 4Q 0 0 4 0L 96 0Q 100 0 100 4L 100 66Q 100 70 96 70L 4 70Q 0 70 0 66Z" stroke="#323232" stroke-width="2" fill-opacity="1" fill="#ffffff"></path><g id="SvgjsG1379"><text id="SvgjsText1380" font-family="微软雅黑" text-anchor="middle" font-size="13px" width="78" fill="#323232" font-weight="400" align="middle" anchor="middle" family="微软雅黑" size="13px" weight="400" font-style="" y="25.05" transform="rotate(0)"><tspan id="SvgjsTspan1381" dy="16" x="50"><tspan id="SvgjsTspan1382" style="text-decoration:;">魏无羡是谁？</tspan></tspan></text></g></g><g id="SvgjsG1383"><path id="SvgjsPath1384" d="M75 105L75 293.5L75 293.5L75 482" stroke="#323232" stroke-width="2" fill="none" marker-end="url(#SvgjsMarker1385)"></path><rect id="SvgjsRect1387" width="78" height="16" x="36" y="285.5" fill="#ffffff"></rect><text id="SvgjsText1388" font-family="微软雅黑" text-anchor="middle" font-size="13px" width="78" fill="#323232" font-weight="400" align="top" anchor="middle" family="微软雅黑" size="13px" weight="400" font-style="" y="283.55" transform="rotate(0)"><tspan id="SvgjsTspan1389" dy="16" x="75"><tspan id="SvgjsTspan1390" style="text-decoration:;">我知我知我知</tspan></tspan></text></g><g id="SvgjsG1391"><path id="SvgjsPath1392" d="M125 70L157.75 70L157.75 70L190.5 70" stroke="#323232" stroke-width="2" fill="none" marker-end="url(#SvgjsMarker1393)"></path><rect id="SvgjsRect1395" width="26" height="16" x="144.75" y="62" fill="#ffffff"></rect><text id="SvgjsText1396" font-family="微软雅黑" text-anchor="middle" font-size="13px" width="26" fill="#323232" font-weight="400" align="top" anchor="middle" family="微软雅黑" size="13px" weight="400" font-style="" y="60.05" transform="rotate(0)"><tspan id="SvgjsTspan1397" dy="16" x="157.75"><tspan id="SvgjsTspan1398" style="text-decoration:;">不知</tspan></tspan></text></g><g id="SvgjsG1399" transform="translate(190.5,25)"><path id="SvgjsPath1400" d="M 0 4Q 0 0 4 0L 150.5 0Q 154.5 0 154.5 4L 154.5 86Q 154.5 90 150.5 90L 4 90Q 0 90 0 86Z" stroke="#323232" stroke-width="2" fill-opacity="1" fill="#ffffff"></path><g id="SvgjsG1401"><text id="SvgjsText1402" font-family="微软雅黑" text-anchor="middle" font-size="13px" width="134" fill="#323232" font-weight="400" align="middle" anchor="middle" family="微软雅黑" size="13px" weight="400" font-style="" y="3.05" transform="rotate(0)"><tspan id="SvgjsTspan1403" dy="16" x="77.5"><tspan id="SvgjsTspan1404" style="text-decoration:;">此生都不打算看2019最</tspan></tspan><tspan id="SvgjsTspan1405" dy="16" x="77.5"><tspan id="SvgjsTspan1406" style="text-decoration:;">热/豆瓣电视剧最多打分</tspan></tspan><tspan id="SvgjsTspan1407" dy="16" x="77.5"><tspan id="SvgjsTspan1408" style="text-decoration:;">人数记录创造者/江湖侠</tspan></tspan><tspan id="SvgjsTspan1409" dy="16" x="77.5"><tspan id="SvgjsTspan1410" style="text-decoration:;">义/神仙配乐/要颜值更</tspan></tspan><tspan id="SvgjsTspan1411" dy="16" x="77.5"><tspan id="SvgjsTspan1412" style="text-decoration:;">要演技的《陈情令》？</tspan></tspan></text></g></g><g id="SvgjsG1413"><path id="SvgjsPath1414" d="M267.75 115L267.75 192L270 192L270 269" stroke="#323232" stroke-width="2" fill="none" marker-end="url(#SvgjsMarker1415)"></path><rect id="SvgjsRect1417" width="13" height="16" x="262.375" y="184" fill="#ffffff"></rect><text id="SvgjsText1418" font-family="微软雅黑" text-anchor="middle" font-size="13px" width="13" fill="#323232" font-weight="400" align="top" anchor="middle" family="微软雅黑" size="13px" weight="400" font-style="" y="182.05" transform="rotate(0)"><tspan id="SvgjsTspan1419" dy="16" x="268.875"><tspan id="SvgjsTspan1420" style="text-decoration:;">不</tspan></tspan></text></g><g id="SvgjsG1421" transform="translate(414,35)"><path id="SvgjsPath1422" d="M 0 4Q 0 0 4 0L 96 0Q 100 0 100 4L 100 66Q 100 70 96 70L 4 70Q 0 70 0 66Z" stroke="#323232" stroke-width="2" fill-opacity="1" fill="#ffffff"></path><g id="SvgjsG1423"><text id="SvgjsText1424" font-family="微软雅黑" text-anchor="middle" font-size="13px" width="65" fill="#323232" font-weight="400" align="middle" anchor="middle" family="微软雅黑" size="13px" weight="400" font-style="" y="25.05" transform="rotate(0)"><tspan id="SvgjsTspan1425" dy="16" x="50"><tspan id="SvgjsTspan1426" style="text-decoration:;">现在去看？</tspan></tspan></text></g></g><g id="SvgjsG1427" transform="translate(220,269)"><path id="SvgjsPath1428" d="M 0 4Q 0 0 4 0L 96 0Q 100 0 100 4L 100 66Q 100 70 96 70L 4 70Q 0 70 0 66Z" stroke="#323232" stroke-width="2" fill-opacity="1" fill="#ffffff"></path><g id="SvgjsG1429"><text id="SvgjsText1430" font-family="微软雅黑" text-anchor="middle" font-size="13px" width="65" fill="#323232" font-weight="400" align="middle" anchor="middle" family="微软雅黑" size="13px" weight="400" font-style="" y="25.05" transform="rotate(0)"><tspan id="SvgjsTspan1431" dy="16" x="50"><tspan id="SvgjsTspan1432" style="text-decoration:;">接受剧透？</tspan></tspan></text></g></g><g id="SvgjsG1433" transform="translate(414,199)"><path id="SvgjsPath1434" d="M 0 4Q 0 0 4 0L 96 0Q 100 0 100 4L 100 66Q 100 70 96 70L 4 70Q 0 70 0 66Z" stroke="#323232" stroke-width="2" fill-opacity="1" fill="#ffffff"></path><g id="SvgjsG1435"><text id="SvgjsText1436" font-family="微软雅黑" text-anchor="middle" font-size="13px" width="78" fill="#323232" font-weight="400" align="middle" anchor="middle" family="微软雅黑" size="13px" weight="400" font-style="" y="17.05" transform="rotate(0)"><tspan id="SvgjsTspan1437" dy="16" x="50"><tspan id="SvgjsTspan1438" style="text-decoration:;">爱细节有耐心</tspan></tspan><tspan id="SvgjsTspan1439" dy="16" x="50"><tspan id="SvgjsTspan1440" style="text-decoration:;">慢热型？</tspan></tspan></text></g></g><g id="SvgjsG1441" transform="translate(381,332.5)"><path id="SvgjsPath1442" d="M 0 4Q 0 0 4 0L 82.75 0Q 86.75 0 86.75 4L 86.75 54Q 86.75 58 82.75 58L 4 58Q 0 58 0 54Z" stroke="#323232" stroke-width="2" fill-opacity="1" fill="#ffffff"></path><g id="SvgjsG1443"><text id="SvgjsText1444" font-family="微软雅黑" text-anchor="middle" font-size="13px" width="65" fill="#323232" font-weight="400" align="middle" anchor="middle" family="微软雅黑" size="13px" weight="400" font-style="" y="3.05" transform="rotate(0)"><tspan id="SvgjsTspan1445" dy="16" x="43.5"><tspan id="SvgjsTspan1446" style="text-decoration:;">推荐20集</tspan></tspan><tspan id="SvgjsTspan1447" dy="16" x="43.5"><tspan id="SvgjsTspan1448" style="text-decoration:;font-size: inherit;">《陈情令》</tspan></tspan><tspan id="SvgjsTspan1449" dy="16" x="43.5"><tspan id="SvgjsTspan1450" style="text-decoration:;font-size: inherit;">特别版</tspan></tspan></text></g></g><g id="SvgjsG1451" transform="translate(473,332.5)"><path id="SvgjsPath1452" d="M 0 4Q 0 0 4 0L 82 0Q 86 0 86 4L 86 54Q 86 58 82 58L 4 58Q 0 58 0 54Z" stroke="#323232" stroke-width="2" fill-opacity="1" fill="#ffffff"></path><g id="SvgjsG1453"><text id="SvgjsText1454" font-family="微软雅黑" text-anchor="middle" font-size="13px" width="65" fill="#323232" font-weight="400" align="middle" anchor="middle" family="微软雅黑" size="13px" weight="400" font-style="" y="3.05" transform="rotate(0)"><tspan id="SvgjsTspan1455" dy="16" x="43"><tspan id="SvgjsTspan1456" style="text-decoration:;">推荐50集</tspan></tspan><tspan id="SvgjsTspan1457" dy="16" x="43"><tspan id="SvgjsTspan1458" style="text-decoration:;">《陈情令》</tspan></tspan><tspan id="SvgjsTspan1459" dy="16" x="43"><tspan id="SvgjsTspan1460" style="text-decoration:;">完整版</tspan></tspan></text></g></g><g id="SvgjsG1461" transform="translate(25,482)"><path id="SvgjsPath1462" d="M 16.666666666666668 0L 83.33333333333333 0C 105.55555555555556 0 105.55555555555556 50 83.33333333333333 50L 16.666666666666668 50C -5.555555555555556 50 -5.555555555555556 0 16.666666666666668 0Z" stroke="#323232" stroke-width="2" fill-opacity="1" fill="#ffffff"></path><g id="SvgjsG1463"><text id="SvgjsText1464" font-family="微软雅黑" text-anchor="middle" font-size="13px" width="26" fill="#323232" font-weight="400" align="middle" anchor="middle" family="微软雅黑" size="13px" weight="400" font-style="" y="15.05" transform="rotate(0)"><tspan id="SvgjsTspan1465" dy="16" x="50"><tspan id="SvgjsTspan1466" style="text-decoration:;">请进</tspan></tspan></text></g></g><g id="SvgjsG1467" transform="translate(220,432)"><path id="SvgjsPath1468" d="M 16.666666666666668 0L 83.33333333333333 0C 105.55555555555556 0 105.55555555555556 50 83.33333333333333 50L 16.666666666666668 50C -5.555555555555556 50 -5.555555555555556 0 16.666666666666668 0Z" stroke="#323232" stroke-width="2" fill-opacity="1" fill="#ffffff"></path><g id="SvgjsG1469"><text id="SvgjsText1470" font-family="微软雅黑" text-anchor="middle" font-size="13px" width="26" fill="#323232" font-weight="400" align="middle" anchor="middle" family="微软雅黑" size="13px" weight="400" font-style="" y="15.05" transform="rotate(0)"><tspan id="SvgjsTspan1471" dy="16" x="50"><tspan id="SvgjsTspan1472" style="text-decoration:;">告辞</tspan></tspan></text></g></g><g id="SvgjsG1473"><path id="SvgjsPath1474" d="M464 269L464 300.75L424.375 300.75L424.375 332.5" stroke="#323232" stroke-width="2" fill="none" marker-end="url(#SvgjsMarker1475)"></path><rect id="SvgjsRect1477" width="13" height="16" x="437.6875" y="292.75" fill="#ffffff"></rect><text id="SvgjsText1478" font-family="微软雅黑" text-anchor="middle" font-size="13px" width="13" fill="#323232" font-weight="400" align="top" anchor="middle" family="微软雅黑" size="13px" weight="400" font-style="" y="290.8" transform="rotate(0)"><tspan id="SvgjsTspan1479" dy="16" x="444.1875"><tspan id="SvgjsTspan1480" style="text-decoration:;">不</tspan></tspan></text></g><g id="SvgjsG1481"><path id="SvgjsPath1482" d="M464 105L464 152L464 152L464 199" stroke="#323232" stroke-width="2" fill="none" marker-end="url(#SvgjsMarker1483)"></path><rect id="SvgjsRect1485" width="13" height="16" x="457.5" y="144" fill="#ffffff"></rect><text id="SvgjsText1486" font-family="微软雅黑" text-anchor="middle" font-size="13px" width="13" fill="#323232" font-weight="400" align="top" anchor="middle" family="微软雅黑" size="13px" weight="400" font-style="" y="142.05" transform="rotate(0)"><tspan id="SvgjsTspan1487" dy="16" x="464"><tspan id="SvgjsTspan1488" style="text-decoration:;">好</tspan></tspan></text></g><g id="SvgjsG1489"><path id="SvgjsPath1490" d="M516 390.5L516 417.25L466.5 417.25L466.5 444" stroke="#323232" stroke-width="2" fill="none" marker-end="url(#SvgjsMarker1491)"></path></g><g id="SvgjsG1493"><path id="SvgjsPath1494" d="M270 339L270 385.5L270 385.5L270 432" stroke="#323232" stroke-width="2" fill="none" marker-end="url(#SvgjsMarker1495)"></path><rect id="SvgjsRect1497" width="13" height="16" x="263.5" y="377.5" fill="#ffffff"></rect><text id="SvgjsText1498" font-family="微软雅黑" text-anchor="middle" font-size="13px" width="13" fill="#323232" font-weight="400" align="top" anchor="middle" family="微软雅黑" size="13px" weight="400" font-style="" y="375.55" transform="rotate(0)"><tspan id="SvgjsTspan1499" dy="16" x="270"><tspan id="SvgjsTspan1500" style="text-decoration:;">不</tspan></tspan></text></g><g id="SvgjsG1501" transform="translate(419,444)"><path id="SvgjsPath1502" d="M 0 4Q 0 0 4 0L 91 0Q 95 0 95 4L 95 22Q 95 26 91 26L 4 26Q 0 26 0 22Z" stroke="#323232" stroke-width="2" fill-opacity="1" fill="#ffffff"></path><g id="SvgjsG1503"><text id="SvgjsText1504" font-family="微软雅黑" text-anchor="middle" font-size="13px" width="52" fill="#323232" font-weight="400" align="middle" anchor="middle" family="微软雅黑" size="13px" weight="400" font-style="" y="3.05" transform="rotate(0)"><tspan id="SvgjsTspan1505" dy="16" x="47.5"><tspan id="SvgjsTspan1506" style="text-decoration:;">看完了？</tspan></tspan></text></g></g><g id="SvgjsG1507"><path id="SvgjsPath1508" d="M466.5 470L466.5 507L125 507" stroke="#323232" stroke-width="2" fill="none" marker-end="url(#SvgjsMarker1509)"></path><rect id="SvgjsRect1511" width="13" height="16" x="307.75" y="499.00000000000006" fill="#ffffff"></rect><text id="SvgjsText1512" font-family="微软雅黑" text-anchor="middle" font-size="13px" width="13" fill="#323232" font-weight="400" align="top" anchor="middle" family="微软雅黑" size="13px" weight="400" font-style="" y="497.05000000000007" transform="rotate(0)"><tspan id="SvgjsTspan1513" dy="16" x="314.25"><tspan id="SvgjsTspan1514" style="text-decoration:;">嗯</tspan></tspan></text></g><g id="SvgjsG1515"><path id="SvgjsPath1516" d="M424.375 390.5L424.375 417.25L466.5 417.25L466.5 444" stroke="#323232" stroke-width="2" fill="none" marker-end="url(#SvgjsMarker1517)"></path></g><g id="SvgjsG1519"><path id="SvgjsPath1520" d="M345 70L379.5 70L379.5 70L414 70" stroke="#323232" stroke-width="2" fill="none" marker-end="url(#SvgjsMarker1521)"></path><rect id="SvgjsRect1523" width="26" height="16" x="366.5" y="62" fill="#ffffff"></rect><text id="SvgjsText1524" font-family="微软雅黑" text-anchor="middle" font-size="13px" width="26" fill="#323232" font-weight="400" align="top" anchor="middle" family="微软雅黑" size="13px" weight="400" font-style="" y="60.05" transform="rotate(0)"><tspan id="SvgjsTspan1525" dy="16" x="379.5"><tspan id="SvgjsTspan1526" style="text-decoration:;">难说</tspan></tspan></text></g><g id="SvgjsG1527"><path id="SvgjsPath1528" d="M480 269L480 300.75L516 300.75L516 332.5" stroke="#323232" stroke-width="2" fill="none" marker-end="url(#SvgjsMarker1529)"></path><rect id="SvgjsRect1531" width="13" height="16" x="491.5" y="292.75" fill="#ffffff"></rect><text id="SvgjsText1532" font-family="微软雅黑" text-anchor="middle" font-size="13px" width="13" fill="#323232" font-weight="400" align="top" anchor="middle" family="微软雅黑" size="13px" weight="400" font-style="" y="290.8" transform="rotate(0)"><tspan id="SvgjsTspan1533" dy="16" x="498"><tspan id="SvgjsTspan1534" style="text-decoration:;">嗯</tspan></tspan></text></g><g id="SvgjsG1535"><path id="SvgjsPath1536" d="M441 105L441 187L298 187L298 269" stroke="#323232" stroke-width="2" fill="none" marker-end="url(#SvgjsMarker1537)"></path><rect id="SvgjsRect1539" width="13" height="16" x="363" y="179" fill="#ffffff"></rect><text id="SvgjsText1540" font-family="微软雅黑" text-anchor="middle" font-size="13px" width="13" fill="#323232" font-weight="400" align="top" anchor="middle" family="微软雅黑" size="13px" weight="400" font-style="" y="177.05" transform="rotate(0)"><tspan id="SvgjsTspan1541" dy="16" x="369.5"><tspan id="SvgjsTspan1542" style="text-decoration:;">不</tspan></tspan></text></g><g id="SvgjsG1543"><path id="SvgjsPath1544" d="M254 339L254 410.5L89 410.5L89 482" stroke="#323232" stroke-width="2" fill="none" marker-end="url(#SvgjsMarker1545)"></path><rect id="SvgjsRect1547" width="13" height="16" x="165" y="402.5" fill="#ffffff"></rect><text id="SvgjsText1548" font-family="微软雅黑" text-anchor="middle" font-size="13px" width="13" fill="#323232" font-weight="400" align="top" anchor="middle" family="微软雅黑" size="13px" weight="400" font-style="" y="400.55" transform="rotate(0)"><tspan id="SvgjsTspan1549" dy="16" x="171.5"><tspan id="SvgjsTspan1550" style="text-decoration:;">可</tspan></tspan></text></g><g id="SvgjsG1551"><path id="SvgjsPath1552" d="M419 457L369.5 457L369.5 304L320 304" stroke="#323232" stroke-width="2" fill="none" marker-end="url(#SvgjsMarker1553)"></path><rect id="SvgjsRect1555" width="13" height="16" x="363" y="372.5" fill="#ffffff"></rect><text id="SvgjsText1556" font-family="微软雅黑" text-anchor="middle" font-size="13px" width="13" fill="#323232" font-weight="400" align="top" anchor="middle" family="微软雅黑" size="13px" weight="400" font-style="" y="370.55" transform="rotate(0)"><tspan id="SvgjsTspan1557" dy="16" x="369.5"><tspan id="SvgjsTspan1558" style="text-decoration:;">否</tspan></tspan></text></g></svg>